<svg id="Layer_1" data-name="Layer 1" xmlns="http://www.w3.org/2000/svg" viewBox="0 0 128 128"><defs><style>.cls-1{fill:#433d42;}</style></defs><path class="cls-1" d="M127.94,63.82a64,64,0,1,0-64,64A64.07,64.07,0,0,0,127.94,63.82Zm-64-44.57A9.72,9.72,0,1,1,54.23,29,9.8,9.8,0,0,1,63.94,19.25Zm-9.71,84.81a4.88,4.88,0,0,1-4.51,3,4.61,4.61,0,0,1-2.09-.52,5,5,0,0,1-2.42-6.76s9.54-21.86,11.27-29.84c.69-2.77,1-10.23,1.21-13.7A2.67,2.67,0,0,0,56,53.59L34.45,47.35A5.17,5.17,0,0,1,31,40.93a5.26,5.26,0,0,1,6.42-3.12S57,44.05,63.94,44.05s26.88-6.42,26.88-6.42a5.05,5.05,0,0,1,2.78,9.72L72.26,53.76a2.47,2.47,0,0,0-1.73,2.61c.17,3.46.52,10.92,1.21,13.7C73.48,78.05,83,99.9,83,99.9a5.15,5.15,0,0,1-2.43,6.76,4.6,4.6,0,0,1-2.08.52A4.7,4.7,0,0,1,74,104.24l-10.06-21Z"/></svg>