<svg id="Layer_1" data-name="Layer 1" xmlns="http://www.w3.org/2000/svg" viewBox="0 0 128 128"><defs><style>.cls-1{fill:#433d42;}</style></defs><path class="cls-1" d="M0,0H128V128H0V0M33.64,107c2.84,6,8.46,11,18.06,11,10.66,0,18-5.69,18-18.13V58.74H57.6V99.56c0,6.11-2.49,7.68-6.4,7.68-4.12,0-5.83-2.85-7.75-6.19L33.64,107m42.52-1.28c3.56,7,10.74,12.3,22,12.3,11.38,0,19.91-5.9,19.91-16.78,0-10-5.76-14.51-16-18.91l-3-1.28c-5.19-2.21-7.4-3.7-7.4-7.26,0-2.91,2.21-5.19,5.76-5.19s5.69,1.49,7.75,5.19l9.32-6.18c-3.91-6.83-9.46-9.46-17.07-9.46C86.68,58.1,79.79,64.92,79.79,74c0,9.81,5.76,14.43,14.43,18.13l3,1.28c5.55,2.42,8.82,3.91,8.82,8,0,3.42-3.2,5.91-8.18,5.91-5.9,0-9.32-3.06-11.88-7.33Z"/></svg>