<svg id="Layer_1" data-name="Layer 1" xmlns="http://www.w3.org/2000/svg" viewBox="0 0 128 128"><defs><style>.cls-1{fill:#433d42;}</style></defs><path class="cls-1" d="M118.58,64V34.23a5,5,0,0,0-5-5H39.19a5,5,0,1,0,0,9.92h69.46V59H98.73a5,5,0,0,0-8.47-3.51l-5,5a5,5,0,0,0,0,7l5,5A5,5,0,0,0,98.73,69h14.89A5,5,0,0,0,118.58,64Z"/><path class="cls-1" d="M29.27,44.15V24.31a5,5,0,0,0-5-5H4.46a5,5,0,0,0-5,5V44.15a5,5,0,0,0,5,5H24.31A5,5,0,0,0,29.27,44.15Z"/><path class="cls-1" d="M78.88,64A14.88,14.88,0,1,0,64,78.88,14.89,14.89,0,0,0,78.88,64Z"/><path class="cls-1" d="M128,101.47l-9.93-19.84a5,5,0,0,0-8.87,0l-9.93,19.84a5,5,0,0,0,4.44,7.18h19.85a5,5,0,0,0,4.44-7.18Z"/><path class="cls-1" d="M87.35,85.3a5,5,0,0,0-8.47,3.51H19.35V69H39.19a5,5,0,1,0,0-9.92H14.38a5,5,0,0,0-5,5V93.77a5,5,0,0,0,5,5h64.5a5,5,0,0,0,8.47,3.51l5-5a5,5,0,0,0,0-7Z"/></svg>