<svg id="Layer_1" data-name="Layer 1" xmlns="http://www.w3.org/2000/svg" viewBox="0 0 128 128"><defs><style>.cls-1{fill:#433d42;}</style></defs><path class="cls-1" d="M.52,90,26.4,64.14V38.26a8,8,0,1,1,16,0V48L66.74,23.8A8.08,8.08,0,0,1,78.16,35.23l-16,16a8.82,8.82,0,0,1,3.44,2.06A8,8,0,0,1,67.7,61a7.63,7.63,0,0,1,4.82,2.34A8,8,0,0,1,74.58,71a7.61,7.61,0,0,1,4.82,2.34,8,8,0,0,1,0,11.29l-9,8.95a25.52,25.52,0,0,1-23.68,6.75l-18,18a2.36,2.36,0,0,1-3,0L.52,92.91A2.28,2.28,0,0,1,.52,90Zm26.84,23.82L44.71,96.49a2.07,2.07,0,0,1,1.51-.55.8.8,0,0,1,.55.14,21.37,21.37,0,0,0,20.79-5.37l9-8.95A3.9,3.9,0,0,0,71,76.25a2,2,0,0,1-2.89,0,2.07,2.07,0,0,1-.55-1.51,2.11,2.11,0,0,1,.55-1.52l1.52-1.51a4,4,0,0,0,0-5.51,3.92,3.92,0,0,0-5.51,0,2,2,0,0,1-2.89,0,2.07,2.07,0,0,1-.55-1.51,2.11,2.11,0,0,1,.55-1.52l1.51-1.51a3.89,3.89,0,0,0-5.5-5.51,2,2,0,0,1-2.89-2.89L75.27,32.2a3.9,3.9,0,1,0-5.51-5.51L42,54.5a1.91,1.91,0,0,1-2.21.41A2,2,0,0,1,38.51,53V38.26a3.85,3.85,0,0,0-3.85-3.86,3.94,3.94,0,0,0-3.86,3.86V65a2.86,2.86,0,0,1-.55,1.52l-25.33,25Z"/><path class="cls-1" d="M72.24,48.72a2.07,2.07,0,0,1,0-4.13,15.7,15.7,0,1,0-15.69-15.7,2.07,2.07,0,1,1-4.13,0,19.81,19.81,0,0,1,39.51-2.06h25.19l-2.47-1.24a2.24,2.24,0,0,1-1-2.75,2.25,2.25,0,0,1,2.76-1L126.9,27h0c.14,0,.27.13.41.27l.14.14c.14.14.27.27.27.41v.14a.5.5,0,0,1,.14.41v.14c0,.14.14.28.14.55s0,.41-.14.55v.14c0,.14-.14.28-.14.41v.14c-.13.14-.13.28-.27.41l-.14.14c-.14.14-.27.14-.41.28h0l-10.46,5.09a2,2,0,0,1-1,.28,1.86,1.86,0,0,1-1.79-1.11,2,2,0,0,1,1-2.75L117.12,31H91.93A20,20,0,0,1,72.24,48.72Z"/></svg>