<?xml version="1.0" encoding="utf-8"?>
<!-- Generator: Adobe Illustrator 23.1.0, SVG Export Plug-In . SVG Version: 6.00 Build 0)  -->
<svg version="1.1" id="Layer_1" xmlns="http://www.w3.org/2000/svg" xmlns:xlink="http://www.w3.org/1999/xlink" x="0px" y="0px"
	 viewBox="0 0 128 128" style="enable-background:new 0 0 128 128;" xml:space="preserve">
<style type="text/css">
	.st0{fill-rule:evenodd;clip-rule:evenodd;fill:#74BB11;}
	.st1{fill-rule:evenodd;clip-rule:evenodd;fill:#009CD9;}
	.st2{fill-rule:evenodd;clip-rule:evenodd;fill:#EB2084;}
</style>
<g>
	<path class="st0" d="M101.4,18.5c-0.8-1.6-2.3-2.5-4.3-2.5h-7.5c-2.2,0-3.8,0.9-4.6,2.5L73.9,34.7L83.6,48l16.9-24.3
		C102.4,21.4,101.8,19.3,101.4,18.5"/>
	<path class="st1" d="M43,18.3L43,18.3C41.3,16,39,16,38.3,16H31c-1.9,0-3.4,0.9-4.2,2.4c-0.8,1.5-0.6,3.4,0.5,5.1l27.1,37.6
		l-31.2,43.5c-1.1,1.6-1.2,3.5-0.4,5c0.8,1.5,2.3,2.4,4.2,2.4h7.5c1.9,0,3.6-1,4.5-2.6l34.9-48.2L43,18.3z"/>
	<path class="st2" d="M105.2,105.9L86.3,80L78,91.5L93,111.4l0.4,0.2c0.6,0.3,1.3,0.4,1.9,0.4h6.3c1.5,0,2.8-0.7,3.6-1.9
		C105.9,108.9,105.9,107.4,105.2,105.9"/>
</g>
</svg>
