<svg id="Layer_1" data-name="Layer 1" xmlns="http://www.w3.org/2000/svg" viewBox="0 0 128 128"><defs><style>.cls-1{fill:#264de4;}.cls-2{fill:#2965f1;}.cls-3{fill:#ebebeb;}.cls-4{fill:#fff;}</style></defs><title>css3</title><g id="layer1"><g id="g3013"><polygon id="polygon2989" class="cls-1" points="109.34 25.16 101.08 117.7 63.94 128 26.91 117.72 18.66 25.16 109.34 25.16"/><polygon id="polygon2991" class="cls-2" points="94.01 111.81 101.07 32.72 64 32.72 64 120.13 94.01 111.81"/><polygon id="polygon2993" class="cls-3" points="37.58 67.05 38.59 78.41 64 78.41 64 67.05 37.58 67.05"/><polygon id="polygon2995" class="cls-3" points="64 44.08 63.96 44.08 35.53 44.08 36.56 55.43 64 55.43 64 44.08"/><polygon id="polygon2997" class="cls-3" points="64 108.35 64 96.54 63.95 96.55 51.31 93.14 50.5 84.08 44.35 84.08 39.1 84.08 40.69 101.91 63.95 108.36 64 108.35"/><path id="path2999" d="M40,0H53.75V5.75h-8V11.5h8v5.75H40Z"/><path id="path3001" d="M56.5,0H70.25V5h-8V6h8V17.5H56.5V12.25h8v-1h-8Z"/><path id="path3003" d="M73,0H86.75V5h-8V6h8V17.5H73V12.25h8v-1H73Z"/><polygon id="polygon3005" class="cls-4" points="77.94 78.41 76.62 93.13 63.96 96.55 63.96 108.36 87.23 101.91 87.41 99.99 90.07 70.1 90.35 67.05 92.4 44.08 63.96 44.08 63.96 55.43 79.96 55.43 78.92 67.05 63.96 67.05 63.96 78.41 77.94 78.41"/></g></g></svg>