<svg xmlns="http://www.w3.org/2000/svg" xmlns:xlink="http://www.w3.org/1999/xlink" version="1.1" x="0px" y="0px" viewBox="0 0 100 125" style="enable-background:new 0 0 100 100;" xml:space="preserve"><g><path d="M26,22.4c-1.1,1.9-1.9,4-2.5,6.1h-4.4c-0.8,0-1.5,0.7-1.5,1.5v11.8c0,0.8,0.7,1.5,1.5,1.5h4.4c0.6,2.1,1.4,4.2,2.5,6.1   l-3.1,3.1c-0.3,0.3-0.4,0.7-0.4,1.1s0.2,0.8,0.4,1.1l8.4,8.4c0.6,0.6,1.5,0.6,2.1,0l3.1-3.1c1.9,1.1,4,1.9,6.1,2.5v4.4   c0,0.8,0.7,1.5,1.5,1.5h11.8c0.8,0,1.5-0.7,1.5-1.5v-4.4c2.1-0.6,4.2-1.4,6.1-2.5l3.1,3.1c0.6,0.6,1.5,0.6,2.1,0l8.4-8.4   c0.3-0.3,0.4-0.7,0.4-1.1s-0.2-0.8-0.4-1.1L74,49.4c1.1-1.9,1.9-4,2.5-6.1h4.4c0.8,0,1.5-0.7,1.5-1.5V30c0-0.8-0.7-1.5-1.5-1.5   h-4.4c-0.6-2.1-1.4-4.2-2.5-6.1l3.1-3.1c0.6-0.6,0.6-1.5,0-2.1l-8.4-8.4c-0.6-0.6-1.5-0.6-2.1,0l-3.1,3.1c-1.9-1.1-4-1.9-6.1-2.5V5   c0-0.8-0.7-1.5-1.5-1.5H44.1c-0.8,0-1.5,0.7-1.5,1.5v4.4c-2.1,0.6-4.2,1.4-6.1,2.5l-3.1-3.1c-0.6-0.6-1.5-0.6-2.1,0l-8.4,8.4   c-0.6,0.6-0.6,1.5,0,2.1L26,22.4z M32.3,12l2.9,2.9c0.5,0.5,1.3,0.6,1.9,0.2c2.3-1.4,4.8-2.4,7.4-3.1c0.7-0.2,1.2-0.8,1.2-1.5v-4   h8.8v4c0,0.7,0.5,1.3,1.2,1.5c2.6,0.6,5.1,1.6,7.4,3.1c0.6,0.4,1.4,0.3,1.9-0.2l2.9-2.9l6.2,6.2L71,21.1c-0.5,0.5-0.6,1.3-0.2,1.9   c1.4,2.3,2.4,4.8,3.1,7.4c0.2,0.7,0.8,1.2,1.5,1.2h4v8.8h-4.1c-0.7,0-1.3,0.5-1.5,1.2c-0.6,2.6-1.6,5.1-3.1,7.4   c-0.4,0.6-0.3,1.4,0.2,1.9l2.9,2.9l-6.2,6.2l-2.9-2.9c-0.5-0.5-1.3-0.6-1.9-0.2c-2.3,1.4-4.8,2.4-7.4,3.1c-0.7,0.2-1.2,0.8-1.2,1.5   v4.1h-8.8v-4.1c0-0.7-0.5-1.3-1.2-1.5c-2.6-0.6-5.1-1.6-7.4-3.1c-0.6-0.4-1.4-0.3-1.9,0.2l-2.9,2.9l-6.2-6.2l2.9-2.9   c0.5-0.5,0.6-1.3,0.2-1.9c-1.4-2.3-2.4-4.8-3.1-7.4c-0.2-0.7-0.8-1.2-1.5-1.2h-4.1v-8.8h4c0.7,0,1.3-0.5,1.5-1.2   c0.6-2.6,1.6-5.1,3.1-7.4c0.4-0.6,0.3-1.4-0.2-1.9l-2.9-2.9L32.3,12z"/><path d="M50,50.7c8.2,0,14.8-6.6,14.8-14.8c0-8.2-6.6-14.8-14.8-14.8s-14.8,6.6-14.8,14.8C35.2,44.1,41.8,50.7,50,50.7z M50,24.1   c6.5,0,11.8,5.3,11.8,11.8c0,6.5-5.3,11.8-11.8,11.8s-11.8-5.3-11.8-11.8C38.2,29.4,43.5,24.1,50,24.1z"/><path d="M93.6,22.3H80.9c-0.8,0-1.5,0.7-1.5,1.5s0.7,1.5,1.5,1.5h11.3v56.9H54.6h-9.2H7.9V25.3h11.3c0.8,0,1.5-0.7,1.5-1.5   s-0.7-1.5-1.5-1.5H6.4c-0.8,0-1.5,0.7-1.5,1.5v59.9c0,0.8,0.7,1.5,1.5,1.5h37.5v8.3h-7.1c-0.8,0-1.5,0.7-1.5,1.5s0.7,1.5,1.5,1.5   h8.6h9.2h8.6c0.8,0,1.5-0.7,1.5-1.5s-0.7-1.5-1.5-1.5h-7.1v-8.3h37.5c0.8,0,1.5-0.7,1.5-1.5V23.8C95.1,23,94.5,22.3,93.6,22.3z    M53.1,93.5h-6.2v-8.3h6.2V93.5z"/></g><text x="0" y="115" fill="#000000" font-size="5px" font-weight="bold" font-family="'Helvetica Neue', Helvetica, Arial-Unicode, Arial, Sans-serif">Created by Justin Blake</text><text x="0" y="120" fill="#000000" font-size="5px" font-weight="bold" font-family="'Helvetica Neue', Helvetica, Arial-Unicode, Arial, Sans-serif">from the Noun Project</text></svg>