<svg xmlns="http://www.w3.org/2000/svg" xmlns:xlink="http://www.w3.org/1999/xlink" version="1.1" x="0px" y="0px" viewBox="0 0 100 125" style="enable-background:new 0 0 100 100;" xml:space="preserve"><g><path d="M50,21.8c-15.6,0-28.2,12.7-28.2,28.2S34.4,78.2,50,78.2S78.2,65.6,78.2,50S65.6,21.8,50,21.8z M50,75.2   c-13.9,0-25.2-11.3-25.2-25.2S36.1,24.8,50,24.8S75.2,36.1,75.2,50S63.9,75.2,50,75.2z"/><path d="M31.6,48.5h-2.5c-0.8,0-1.5,0.7-1.5,1.5s0.7,1.5,1.5,1.5h2.5c0.8,0,1.5-0.7,1.5-1.5S32.5,48.5,31.6,48.5z"/><path d="M66.9,50c0,0.8,0.7,1.5,1.5,1.5h2.5c0.8,0,1.5-0.7,1.5-1.5s-0.7-1.5-1.5-1.5h-2.5C67.5,48.5,66.9,49.2,66.9,50z"/><path d="M36.3,34.1c-0.6-0.6-1.5-0.6-2.1,0s-0.6,1.5,0,2.1l1.8,1.8c0.3,0.3,0.7,0.4,1.1,0.4s0.8-0.1,1.1-0.4c0.6-0.6,0.6-1.5,0-2.1   L36.3,34.1z"/><path d="M64.1,61.9c-0.6-0.6-1.5-0.6-2.1,0s-0.6,1.5,0,2.1l1.8,1.8c0.3,0.3,0.7,0.4,1.1,0.4s0.8-0.1,1.1-0.4c0.6-0.6,0.6-1.5,0-2.1   L64.1,61.9z"/><path d="M35.9,61.9l-1.8,1.8c-0.6,0.6-0.6,1.5,0,2.1c0.3,0.3,0.7,0.4,1.1,0.4s0.8-0.1,1.1-0.4l1.8-1.8c0.6-0.6,0.6-1.5,0-2.1   S36.5,61.3,35.9,61.9z"/><path d="M63.7,34.1l-1.8,1.8c-0.6,0.6-0.6,1.5,0,2.1c0.3,0.3,0.7,0.4,1.1,0.4s0.8-0.1,1.1-0.4l1.8-1.8c0.6-0.6,0.6-1.5,0-2.1   S64.3,33.6,63.7,34.1z"/><path d="M50,33.1c0.8,0,1.5-0.7,1.5-1.5v-2.5c0-0.8-0.7-1.5-1.5-1.5s-1.5,0.7-1.5,1.5v2.5C48.5,32.5,49.2,33.1,50,33.1z"/><path d="M95,39.9h-6.9c-0.9-3.4-2.2-6.6-4-9.7l4.9-4.9c0.3-0.3,0.4-0.7,0.4-1.1s-0.2-0.8-0.4-1.1L76.8,11.1c-0.6-0.6-1.5-0.6-2.1,0   l-4.9,4.9c-3-1.8-6.3-3.1-9.7-4V5c0-0.8-0.7-1.5-1.5-1.5H41.4c-0.8,0-1.5,0.7-1.5,1.5v6.9c-3.4,0.9-6.6,2.2-9.7,4l-4.9-4.9   c-0.6-0.6-1.5-0.6-2.1,0L11.1,23.2c-0.3,0.3-0.4,0.7-0.4,1.1s0.2,0.8,0.4,1.1l4.9,4.9c-1.8,3-3.1,6.3-4,9.7H5   c-0.8,0-1.5,0.7-1.5,1.5v17.2c0,0.8,0.7,1.5,1.5,1.5h6.9c0.9,3.4,2.2,6.6,4,9.7l-4.9,4.9c-0.6,0.6-0.6,1.5,0,2.1l12.2,12.2   c0.6,0.6,1.5,0.6,2.1,0l4.9-4.9c3,1.8,6.3,3.1,9.7,4V95c0,0.8,0.7,1.5,1.5,1.5h17.2c0.8,0,1.5-0.7,1.5-1.5v-6.9   c3.4-0.9,6.6-2.2,9.7-4l4.9,4.9c0.6,0.6,1.5,0.6,2.1,0l12.2-12.2c0.6-0.6,0.6-1.5,0-2.1l-4.9-4.9c1.8-3,3.1-6.3,4-9.7H95   c0.8,0,1.5-0.7,1.5-1.5V41.4C96.5,40.6,95.8,39.9,95,39.9z M93.5,57.1h-6.6c-0.7,0-1.3,0.5-1.5,1.2c-0.9,3.9-2.4,7.6-4.5,11   c-0.4,0.6-0.3,1.4,0.2,1.9l4.7,4.7l-10,10l-4.7-4.7c-0.5-0.5-1.3-0.6-1.9-0.2c-3.4,2.1-7.1,3.6-11,4.5c-0.7,0.2-1.2,0.8-1.2,1.5   v6.6H42.9v-6.6c0-0.7-0.5-1.3-1.2-1.5c-3.9-0.9-7.6-2.4-11-4.5c-0.6-0.4-1.4-0.3-1.9,0.2l-4.7,4.7l-10-10l4.7-4.7   c0.5-0.5,0.6-1.3,0.2-1.9c-2.1-3.4-3.6-7.1-4.5-11c-0.2-0.7-0.8-1.2-1.5-1.2H6.5V42.9h6.6c0.7,0,1.3-0.5,1.5-1.2   c0.9-3.9,2.4-7.6,4.5-11c0.4-0.6,0.3-1.4-0.2-1.9l-4.7-4.7l10-10l4.7,4.7c0.5,0.5,1.3,0.6,1.9,0.2c3.4-2.1,7.1-3.6,11-4.5   c0.7-0.2,1.2-0.8,1.2-1.5V6.5h14.2v6.6c0,0.7,0.5,1.3,1.2,1.5c3.9,0.9,7.6,2.4,11,4.5c0.6,0.4,1.4,0.3,1.9-0.2l4.7-4.7l10,10   l-4.7,4.7c-0.5,0.5-0.6,1.3-0.2,1.9c2.1,3.4,3.6,7.1,4.5,11c0.2,0.7,0.8,1.2,1.5,1.2h6.6V57.1z"/><path d="M58.2,30.2c-0.8-0.3-1.6,0-2,0.8l-5.4,13.1c-0.4-0.1-0.7-0.1-1.1-0.1c-3.3,0-6,2.7-6,6s2.7,6,6,6s6-2.7,6-6   c0-1.8-0.8-3.5-2.1-4.6L59,32.2C59.3,31.4,59,30.6,58.2,30.2z M49.7,53c-1.6,0-3-1.3-3-3s1.3-3,3-3s3,1.3,3,3S51.3,53,49.7,53z"/></g><text x="0" y="115" fill="#000000" font-size="5px" font-weight="bold" font-family="'Helvetica Neue', Helvetica, Arial-Unicode, Arial, Sans-serif">Created by Justin Blake</text><text x="0" y="120" fill="#000000" font-size="5px" font-weight="bold" font-family="'Helvetica Neue', Helvetica, Arial-Unicode, Arial, Sans-serif">from the Noun Project</text></svg>