<svg id="Layer_1" data-name="Layer 1" xmlns="http://www.w3.org/2000/svg" viewBox="0 0 128 128"><defs><style>.cls-1{fill:#433d42;}</style></defs><path class="cls-1" d="M120.56,30A7.64,7.64,0,0,0,113,37.55V87.7a.82.82,0,0,0,.14.55v.14c0,.13.13.27.13.41h0l5.38,8.4a2.12,2.12,0,0,0,1.79,1h0a2.33,2.33,0,0,0,1.79-1l5.51-8.4h0a.5.5,0,0,0,.14-.41v-.14c0-.14.14-.41.14-.55V37.41A7.33,7.33,0,0,0,120.56,30Zm0,62.27-1.66-2.61h3.31ZM124,85.49h-6.75V48.84H124Zm0-40.78h-6.75V42.78H124Zm0-6.06h-6.75V37.41a3.45,3.45,0,1,1,6.89,0v1.24Z"/><path class="cls-1" d="M106.09,19.5H2.07A2.11,2.11,0,0,0,0,21.56V92.93A2.11,2.11,0,0,0,2.07,95h44.5v9.37H38.44a2.07,2.07,0,1,0,0,4.13H69.85a2.07,2.07,0,1,0,0-4.13H61.72V95h44.51a2.11,2.11,0,0,0,2.06-2.07V21.56A2.34,2.34,0,0,0,106.09,19.5ZM57.45,104.37H50.56V95h6.89ZM104,90.87H4.13V23.63H104Z"/><path class="cls-1" d="M11,53.12h88V29.28H9V53.12ZM29.35,49l24.8-5.65L79,49Zm65.72-.55-31.69-7.3,31.69-7.3Zm-16.26-15L54,39.06l-24.8-5.65ZM13.09,34l31.69,7.31-31.69,7.3Z"/><path class="cls-1" d="M40.09,85.08H67.92v-28H40.09Zm4.14-23.84H63.79V81H44.23Z"/><path class="cls-1" d="M36.92,57.11H9v28H36.79v-28ZM32.79,81H13.09V61.24H32.65V81Z"/><path class="cls-1" d="M71.37,85.08H99.2v-28H71.37ZM75.5,61.24H95.07V81H75.5Z"/><path class="cls-1" d="M89.83,72.54H80.6a2.07,2.07,0,1,0,0,4.14h9.23a2.13,2.13,0,0,0,2.07-2.07A2,2,0,0,0,89.83,72.54Z"/><path class="cls-1" d="M89.83,65.52H80.6a2.07,2.07,0,1,0,0,4.13h9.23a2.13,2.13,0,0,0,2.07-2.07A2,2,0,0,0,89.83,65.52Z"/><path class="cls-1" d="M58.69,72.54H49.46a2.07,2.07,0,0,0,0,4.14h9.23a2.07,2.07,0,1,0,0-4.14Z"/><path class="cls-1" d="M58.69,65.52H49.46a2.07,2.07,0,0,0,0,4.13h9.23a2.07,2.07,0,1,0,0-4.13Z"/><path class="cls-1" d="M18.32,76.68h9.24a2.07,2.07,0,0,0,0-4.14H18.32a2.07,2.07,0,0,0,0,4.14Z"/><path class="cls-1" d="M18.32,69.65h9.24a2.07,2.07,0,0,0,0-4.13H18.32a2.07,2.07,0,0,0,0,4.13Z"/></svg>