<svg xmlns="http://www.w3.org/2000/svg" xmlns:xlink="http://www.w3.org/1999/xlink" version="1.1" x="0px" y="0px" viewBox="0 0 100 125" style="enable-background:new 0 0 100 100;" xml:space="preserve"><g><path d="M70.7,9.8h-14V5.4c0-0.8-0.7-1.5-1.5-1.5H23.9c-0.8,0-1.5,0.7-1.5,1.5v4.4h-14c-0.8,0-1.5,0.7-1.5,1.5v83.3   c0,0.8,0.7,1.5,1.5,1.5h62.4c0.8,0,1.5-0.7,1.5-1.5V11.3C72.2,10.5,71.5,9.8,70.7,9.8z M25.4,6.9h28.3v4.4v3.1H25.4v-3.1V6.9z    M69.2,93.1H9.8V12.8h12.5v3.1c0,0.8,0.7,1.5,1.5,1.5h31.3c0.8,0,1.5-0.7,1.5-1.5v-3.1h12.5V93.1z"/><path d="M30.1,25.1c-6.7,0-12.1,5.4-12.1,12.1s5.4,12.1,12.1,12.1S42.2,44,42.2,37.3S36.8,25.1,30.1,25.1z M30.1,46.4   c-5,0-9.1-4.1-9.1-9.1c0-5,4.1-9.1,9.1-9.1s9.1,4.1,9.1,9.1C39.2,42.3,35.1,46.4,30.1,46.4z"/><path d="M32.1,39.5c-1.1,1.1-2.9,1.1-4,0c-0.6-0.6-1.5-0.6-2.1,0c-0.6,0.6-0.6,1.5,0,2.1c1.1,1.1,2.6,1.7,4.1,1.7   c1.5,0,3-0.6,4.1-1.7c0.6-0.6,0.6-1.5,0-2.1C33.6,38.9,32.7,38.9,32.1,39.5z"/><path d="M33.6,32.9L33.6,32.9c-0.8,0-1.5,0.7-1.5,1.5s0.7,1.5,1.5,1.5s1.5-0.7,1.5-1.5S34.4,32.9,33.6,32.9z"/><path d="M28.1,34.4c0-0.8-0.7-1.5-1.5-1.5h0c-0.8,0-1.5,0.7-1.5,1.5s0.7,1.5,1.5,1.5S28.1,35.3,28.1,34.4z"/><path d="M30.1,56.5C23.4,56.5,18,62,18,68.7s5.4,12.1,12.1,12.1s12.1-5.4,12.1-12.1S36.8,56.5,30.1,56.5z M30.1,77.8   c-5,0-9.1-4.1-9.1-9.1s4.1-9.1,9.1-9.1s9.1,4.1,9.1,9.1S35.1,77.8,30.1,77.8z"/><path d="M26,70.9c-0.6,0.6-0.6,1.5,0,2.1c0.3,0.3,0.7,0.4,1.1,0.4s0.8-0.1,1.1-0.4c1.1-1.1,2.9-1.1,4,0c0.6,0.6,1.5,0.6,2.1,0   c0.6-0.6,0.6-1.5,0-2.1C32,68.7,28.3,68.7,26,70.9z"/><path d="M33.6,64.3L33.6,64.3c-0.8,0-1.5,0.7-1.5,1.5s0.7,1.5,1.5,1.5s1.5-0.7,1.5-1.5S34.4,64.3,33.6,64.3z"/><path d="M28.1,65.8c0-0.8-0.7-1.5-1.5-1.5h0c-0.8,0-1.5,0.7-1.5,1.5s0.7,1.5,1.5,1.5S28.1,66.6,28.1,65.8z"/><path d="M47.2,31.8v10.9c0,0.8,0.7,1.5,1.5,1.5h10.9c0.8,0,1.5-0.7,1.5-1.5V31.8c0-0.8-0.7-1.5-1.5-1.5H48.7   C47.8,30.3,47.2,31,47.2,31.8z M50.2,33.3h7.9v7.9h-7.9V33.3z"/><path d="M59.6,61.7H48.7c-0.8,0-1.5,0.7-1.5,1.5v10.9c0,0.8,0.7,1.5,1.5,1.5h10.9c0.8,0,1.5-0.7,1.5-1.5V63.2   C61.1,62.4,60.4,61.7,59.6,61.7z M58.1,72.6h-7.9v-7.9h7.9V72.6z"/><path d="M86,18.5c-3.9,0-7.1,3.2-7.1,7.1v51.5c0,0.1,0,0.3,0.1,0.4c0,0,0,0.1,0,0.1c0,0.1,0.1,0.2,0.1,0.3c0,0,0,0,0,0l5.6,8.7   c0.3,0.4,0.7,0.7,1.3,0.7c0,0,0,0,0,0c0.5,0,1-0.3,1.3-0.7l5.7-8.7c0,0,0,0,0,0l0,0c0,0,0,0,0,0c0.1-0.1,0.1-0.2,0.1-0.3   c0,0,0-0.1,0-0.1c0-0.1,0.1-0.3,0.1-0.4V25.7C93.2,21.7,90,18.5,86,18.5z M81.9,75.7V36.8h8.3v38.9H81.9z M81.9,30.6h8.3v3.2h-8.3   V30.6z M86,21.5c2.3,0,4.1,1.9,4.1,4.1v1.9h-8.3v-1.9C81.9,23.4,83.7,21.5,86,21.5z M86,83.1l-2.9-4.4h5.7L86,83.1z"/></g><text x="0" y="115" fill="#000000" font-size="5px" font-weight="bold" font-family="'Helvetica Neue', Helvetica, Arial-Unicode, Arial, Sans-serif">Created by Justin Blake</text><text x="0" y="120" fill="#000000" font-size="5px" font-weight="bold" font-family="'Helvetica Neue', Helvetica, Arial-Unicode, Arial, Sans-serif">from the Noun Project</text></svg>