<?xml version="1.0" encoding="utf-8"?>
<!-- Generator: Adobe Illustrator 24.0.2, SVG Export Plug-In . SVG Version: 6.00 Build 0)  -->
<svg version="1.1" id="Layer_1" xmlns="http://www.w3.org/2000/svg" xmlns:xlink="http://www.w3.org/1999/xlink" x="0px" y="0px"
	 viewBox="0 0 332.3 51.4" style="enable-background:new 0 0 332.3 51.4;" xml:space="preserve">
<style type="text/css">
	.st0{fill-rule:evenodd;clip-rule:evenodd;fill:#F0602C;}
	.st1{fill-rule:evenodd;clip-rule:evenodd;fill:#2B3B46;}
	.st2{fill:#2B3B46;}
</style>
<path id="Path-87_7_" class="st0" d="M0.9,10.3v31.9l27-16.2L0.9,10.3z"/>
<path id="Enable_7_" class="st1" d="M52.9,9.9V14H40.5v9.7h11v4h-11v10h12.4v4.1H35.3V9.9H52.9z M64.5,16.6v4
	c1.6-2.9,4.8-4.6,8.1-4.4c2.6-0.1,5.2,1,7,2.8c2,2.2,3,5,2.8,7.9v14.9h-5.2V27.7c0.1-1.9-0.5-3.7-1.7-5.2c-1.2-1.2-2.9-1.9-4.6-1.8
	c-1.7-0.1-3.4,0.6-4.7,1.8c-1.2,1.4-1.8,3.3-1.7,5.2v14.1h-5.2V16.6H64.5z M108,29.2c0.1-2.3-0.7-4.5-2.3-6.2c-2.9-3-7.6-3-10.6-0.2
	c0,0.1-0.1,0.1-0.1,0.2c-1.6,1.6-2.4,3.9-2.3,6.2c-0.1,2.3,0.7,4.6,2.3,6.3c1.4,1.5,3.3,2.4,5.4,2.5c2,0,4-0.8,5.4-2.3
	c1.6-1.7,2.4-3.9,2.3-6.2v-0.3H108z M90.8,38.5c-2.4-2.6-3.6-6-3.5-9.4c-0.1-3.4,1.1-6.8,3.4-9.3c2.2-2.4,5.3-3.7,8.5-3.6
	c1.8,0,3.7,0.4,5.2,1.4c1.5,0.8,2.7,2.1,3.5,3.5v-4.5h5.3v25.3h-5.3v-4.7c-0.8,1.5-2.1,2.8-3.5,3.7c-1.6,1-3.4,1.4-5.2,1.4
	C96.1,42.3,93,40.9,90.8,38.5L90.8,38.5z M140.8,29.1c0.1-2.3-0.7-4.5-2.3-6.1c-3-3-7.8-3-10.8-0.1c0,0,0,0-0.1,0.1
	c-1.6,1.7-2.4,3.9-2.3,6.2c-0.1,2.3,0.7,4.5,2.3,6.2c2.8,3,7.4,3.2,10.4,0.4c0.1-0.1,0.3-0.3,0.4-0.4
	C140.1,33.6,140.9,31.4,140.8,29.1L140.8,29.1z M134.2,16.1c3.2-0.1,6.4,1.2,8.5,3.6c2.3,2.5,3.6,5.9,3.4,9.3
	c0.1,3.5-1.1,6.9-3.4,9.4c-2.2,2.5-5.3,3.8-8.6,3.7c-1.8,0-3.7-0.4-5.2-1.4c-1.5-0.9-2.7-2.2-3.6-3.7v4.7h-5.2V7.9h5.2V21
	c0.9-1.5,2.1-2.7,3.6-3.5C130.5,16.6,132.4,16.1,134.2,16.1L134.2,16.1z M151.3,41.8V7.9h5.2v33.9L151.3,41.8z M174,42.2
	c-3.4,0.1-6.6-1.2-9-3.6c-2.4-2.6-3.6-6-3.4-9.5c-0.2-3.5,1.1-6.9,3.5-9.5c5.1-4.7,12.9-4.7,18-0.1c2.3,2.4,3.6,5.6,3.4,8.9
	c0,0.8-0.1,1.6-0.2,2.5H167c0,1.9,0.8,3.7,2.1,5c1.3,1.2,3.1,1.9,4.9,1.8c2.5,0.2,4.9-1.2,6-3.5h5.6c-0.7,2.3-2.2,4.3-4.2,5.7
	C179.2,41.4,176.7,42.2,174,42.2L174,42.2z M178.9,22.4c-1.3-1.2-3.1-1.9-4.9-1.9c-1.8-0.1-3.6,0.6-4.9,1.8
	c-1.3,1.3-2.1,3.1-2.2,4.9h14C181,25.4,180.2,23.7,178.9,22.4L178.9,22.4z"/>
<circle class="st0" cx="199.7" cy="27.6" r="3.3"/>
<g>
	<path class="st2" d="M224.4,8.2h4.3L241.9,43h-4.5l-3.1-8.5h-15.5l-3.1,8.5h-4.5L224.4,8.2z M233,30.8l-6.4-17.4h-0.1l-6.3,17.4
		H233z"/>
	<path class="st2" d="M245.7,33.4V19.2h4v13.1c0,5.4,2.1,7.4,5.8,7.4c3.8,0,7.1-3.3,7.1-9V19.2h4V43h-4v-4.1h0
		c-1.8,2.8-4.8,4.4-7.9,4.4C249.2,43.3,245.7,40.2,245.7,33.4z"/>
	<path class="st2" d="M272.3,31.3c0-7.1,4.9-12.4,11.7-12.4c3.6,0,6.7,1.7,8.5,4.6h0V7h4V43h-3.8v-4.4h0c-1.7,2.9-4.8,4.7-8.6,4.7
		C277.3,43.3,272.3,38.5,272.3,31.3z M292.6,31.3c0-4.9-3.3-8.8-8.1-8.8c-4.6,0-8.2,3.5-8.2,8.8c0,4.8,3.3,8.4,8.2,8.4
		C289,39.7,292.6,36.3,292.6,31.3z"/>
	<path class="st2" d="M303.3,12c0-1.6,1.3-2.8,2.9-2.8s2.9,1.3,2.9,2.8s-1.3,2.8-2.9,2.8S303.3,13.5,303.3,12z M304.1,19.2h4V43h-4
		V19.2z"/>
	<path class="st2" d="M316.4,35.9V22.6h-3.1v-3.4h3.1V11l4-0.4v8.6h7.9v3.4h-7.9v12.7c0,2.9,0.6,4.3,2.9,4.3c1.4,0,2.9-0.6,4.1-1.2
		l1,3.5c-1.3,0.8-2.9,1.5-5.8,1.5C318.4,43.3,316.4,40.7,316.4,35.9z"/>
</g>
</svg>
