<svg id="Layer_1" data-name="Layer 1" xmlns="http://www.w3.org/2000/svg" viewBox="0 0 128 128"><defs><style>.cls-1{fill:#261300;}.cls-2{fill:#ff7c00;}</style></defs><title>illustrator</title><path class="cls-1" d="M20,21.2h88v85.6H20Z"/><path class="cls-2" d="M16,17.2v93.6h96V17.2Zm4,4h88v85.6H20Z"/><path class="cls-2" d="M49.32,70.2l-3.16,12c-.08.32-.2.4-.6.4H39.68c-.4,0-.48-.12-.4-.6L50.64,42.24a13,13,0,0,0,.4-3.32c0-.28.12-.4.32-.4h8.4c.28,0,.4.08.48.4L73,82.08c.08.32,0,.52-.32.52H66c-.32,0-.52-.08-.6-.36l-3.32-12Zm11.12-6.48c-1.12-4.44-3.76-14.12-4.76-18.8H55.6c-.84,4.68-3,12.6-4.64,18.8Zm18-22.24a4.08,4.08,0,0,1,8.16,0,3.82,3.82,0,0,1-4.16,4.08,3.76,3.76,0,0,1-4-4.08Zm.48,9.08c0-.32.12-.48.48-.48h6.28c.32,0,.48.12.48.48V82.12c0,.32-.08.48-.48.48h-6.2c-.4,0-.52-.2-.52-.52V50.56Z"/></svg>