<svg id="Layer_1" data-name="Layer 1" xmlns="http://www.w3.org/2000/svg" viewBox="0 0 128 128"><defs><style>.cls-1{fill:#9d0fbe;}</style></defs><title>axure</title><path class="cls-1" d="M106.72,16c3,.47,5.29,2.91,5.28,6.8-.09,27.57,0,55.13,0,82.69,0,4-2.4,6.35-6.35,6.35-21.43,0-65.75,0-65.75,0V16.06S106.61,16,106.72,16Zm-51,73.36c1.18,0,2.19.07,3.19,0a1.57,1.57,0,0,1,1.73,1c2.23,4.19,4.5,8.35,6.77,12.53.22.4.37.77,1,.76,2.13,0,4.25,0,6.55,0l-8.83-14.9c.73-.26,1.38-.45,2-.72A8.46,8.46,0,0,0,73.75,80a8.55,8.55,0,0,0-5-8.52,12.82,12.82,0,0,0-5.53-1.36c-4.31-.09-13.2,0-13.36,0v33.5h5.91Zm27.74.38h2.94a31.43,31.43,0,0,0,6-.39c5-.87,8.06-3.68,8.67-8.06.73-5.32-1.83-9.32-6.86-10.66a14,14,0,0,0-3.46-.54c-4.22,0-8.44-.06-12.67-.08a2.39,2.39,0,0,0-.51.13V103.6h5.91Z"/><path class="cls-1" d="M33.94,112H28.26c-2.08,0-4.16,0-6.25,0a5.85,5.85,0,0,1-6-6Q16,64,16,22a5.79,5.79,0,0,1,5.58-5.91c4.08-.19,8.17-.05,12.33-.05Z"/><path class="cls-1" d="M56,75.06c2.7.11,5.38-.22,8,.27,2.48.45,4,2,4,4.2a4.47,4.47,0,0,1-3.8,4.66,26.69,26.69,0,0,1-6,.35H56Z"/><path class="cls-1" d="M83.49,84.55V75c2.68,0,5.32-.25,7.93.3a4.24,4.24,0,0,1,3.69,4,4.31,4.31,0,0,1-3.3,4.78,7.51,7.51,0,0,1-2,.42C87.75,84.58,85.67,84.55,83.49,84.55Z"/></svg>