<svg id="Layer_1" data-name="Layer 1" xmlns="http://www.w3.org/2000/svg" viewBox="0 0 128 128"><defs><style>.cls-1{fill:#e44d26;}.cls-2{fill:#f16529;}.cls-3{fill:#ebebeb;}.cls-4{fill:#fff;}</style></defs><title>html5</title><path d="M27.1,0h5.75V5.7h5.3V0H43.9V17.25H38.15V11.5H32.9v5.75H27.1M51.5,5.75H46.43V0H62.35V5.75h-5.1v11.5H51.5M64.88,0h6l3.7,6.07L78.3,0h6V17.25H78.58V8.7l-4,6.2-4-6.2v8.55H64.88M87.18,0h5.75V11.55h8.15v5.7H87.18"/><path class="cls-1" d="M26.9,117.75l-8.25-92.6h90.7L101.1,117.7,63.93,128"/><path class="cls-2" d="M64,120.13V32.75h37.07l-7.07,79"/><path class="cls-3" d="M35.5,44.08H64V55.43H48l1,11.62H64V78.38H38.6m.5,5.69H50.5l.8,9.08L64,96.55V108.4l-23.3-6.5"/><path class="cls-4" d="M92.4,44.08H64V55.43h27.4m-1,11.62H64V78.4H78L76.63,93.15,64,96.55v11.8L87.2,101.9"/></svg>