<svg id="Layer_1" data-name="Layer 1" xmlns="http://www.w3.org/2000/svg" viewBox="0 0 128 128"><defs><style>.cls-1{fill:#001d26;}.cls-2{fill:#00c8ff;}</style></defs><title>photoshop</title><path class="cls-1" d="M20,21.2h88v85.6H20Z"/><path class="cls-2" d="M16,17.2v93.6h96V17.2Zm4,4h88v85.6H20ZM39.2,39.32c0-.28.57-.48.89-.48,2.61-.12,6.47-.2,10.5-.2,11.27,0,15.66,6.08,15.66,13.88C66.25,62.68,58.77,67,49.57,67,48,67,47.5,67,46.4,67V82.32c0,.32-.12.48-.49.48H39.69c-.33,0-.49-.12-.49-.48v-43Zm7.2,21.1c.92.08,1.64.08,3.24.08,4.68,0,9.08-1.64,9.08-8,0-5.08-3.16-7.64-8.48-7.64-1.6,0-3.12.08-3.84.12V60.42Zm34.36-4.88c-3.2,0-4.29,1.62-4.29,3s.73,2.46,5,4.68c6.34,3.08,8.33,6,8.33,10.36,0,6.46-4.94,9.94-11.61,9.94a17.6,17.6,0,0,1-8.29-1.74c-.28-.12-.32-.32-.32-.64V75.15c0-.4.2-.52.49-.32a14.94,14.94,0,0,0,8.12,2.38c3.2,0,4.53-1.33,4.53-3.15,0-1.45-.93-2.75-5-4.85C72,66.46,69.6,63.67,69.6,59c0-5.21,4.08-9.54,11.16-9.54A18.56,18.56,0,0,1,88,50.61a.9.9,0,0,1,.4.81V57c0,.32-.2.52-.61.4a13.65,13.65,0,0,0-7-1.82Z"/></svg>