<?xml version="1.0" encoding="utf-8"?>
<!-- Generator: Adobe Illustrator 24.2.1, SVG Export Plug-In . SVG Version: 6.00 Build 0)  -->
<svg version="1.1" id="Layer_2_1_" xmlns="http://www.w3.org/2000/svg" xmlns:xlink="http://www.w3.org/1999/xlink" x="0px" y="0px"
	 viewBox="0 0 669.9 596" style="enable-background:new 0 0 669.9 596;" xml:space="preserve">
<style type="text/css">
	.st0{fill:#61DAFB;}
</style>
<g>
	<path class="st0" d="M669.9,298.1c0-44.3-55.5-86.4-140.6-112.4c19.6-86.8,10.9-155.8-27.6-177.9c-8.9-5.2-19.2-7.6-30.6-7.6v30.4
		c6.3,0,11.3,1.2,15.6,3.5c18.6,10.6,26.6,51.2,20.3,103.3c-1.5,12.8-4,26.3-7,40.1c-26.7-6.5-55.9-11.6-86.6-14.9
		c-18.4-25.2-37.5-48.2-56.7-68.2c44.5-41.3,86.2-64,114.6-64V0l0,0C433.8,0,384.7,26.7,335,73.1C285.4,27,236.3,0.5,198.7,0.5V31
		c28.2,0,70.1,22.5,114.6,63.6c-19.1,20.1-38.2,42.8-56.3,68.1c-30.8,3.3-60,8.3-86.8,15c-3.1-13.6-5.5-26.9-7.1-39.6
		c-6.4-52.1,1.5-92.6,19.9-103.4c4.1-2.5,9.4-3.5,15.7-3.5V0.7l0,0c-11.5,0-21.8,2.5-30.8,7.6c-38.3,22.1-46.9,91-27.1,177.5
		C55.9,212,0.7,253.9,0.7,298.1c0,44.3,55.5,86.4,140.6,112.4c-19.6,86.8-10.9,155.8,27.6,177.9c8.9,5.2,19.2,7.6,30.7,7.6
		c37.5,0,86.6-26.7,136.3-73.1c49.7,46.1,98.8,72.6,136.3,72.6c11.5,0,21.8-2.5,30.8-7.6c38.3-22.1,46.9-91,27.1-177.5
		C614.7,384.3,669.9,342.3,669.9,298.1z M492.3,207.1c-5,17.6-11.3,35.7-18.4,53.9c-5.6-10.9-11.5-21.8-17.9-32.7
		c-6.3-10.9-13-21.6-19.6-31.9C455.7,199.2,474.4,202.7,492.3,207.1z M429.8,352.4c-10.6,18.4-21.6,35.9-32.9,52.1
		c-20.3,1.8-40.9,2.7-61.7,2.7c-20.6,0-41.2-1-61.4-2.6c-11.3-16.2-22.4-33.6-33-51.8c-10.4-17.9-19.8-36-28.4-54.3
		c8.5-18.3,18-36.6,28.2-54.4c10.6-18.4,21.6-35.9,32.9-52.1c20.3-1.8,40.9-2.7,61.7-2.7c20.6,0,41.2,1,61.4,2.6
		c11.3,16.2,22.4,33.6,33,51.8c10.4,17.9,19.8,36,28.4,54.3C449.5,316.2,440.1,334.5,429.8,352.4z M473.9,334.6
		c7.4,18.3,13.6,36.6,18.8,54.3c-17.9,4.4-36.7,8-56.2,10.9c6.7-10.5,13.4-21.3,19.6-32.3C462.4,356.6,468.3,345.5,473.9,334.6z
		 M335.6,480.2c-12.7-13.1-25.4-27.7-37.9-43.7c12.3,0.5,24.8,1,37.5,1c12.8,0,25.5-0.3,37.9-1C360.8,452.5,348.1,467.1,335.6,480.2
		z M234.1,399.8c-19.4-2.9-38.1-6.4-55.9-10.8c5-17.6,11.3-35.7,18.4-53.9c5.6,10.9,11.5,21.8,17.9,32.7
		C220.8,378.8,227.4,389.5,234.1,399.8z M334.9,116c12.7,13.1,25.4,27.7,37.9,43.7c-12.3-0.5-24.8-1-37.5-1c-12.8,0-25.5,0.3-37.9,1
		C309.6,143.6,322.3,129,334.9,116z M233.9,196.3c-6.7,10.5-13.4,21.3-19.6,32.3c-6.3,10.9-12.1,21.8-17.7,32.7
		c-7.4-18.3-13.6-36.6-18.8-54.3C195.6,202.9,214.4,199.2,233.9,196.3z M110.5,367.1c-48.3-20.6-79.5-47.6-79.5-69
		c0-21.4,31.2-48.6,79.5-69c11.7-5,24.6-9.5,37.8-13.8c7.8,26.7,18,54.6,30.7,83.1c-12.6,28.4-22.6,56.1-30.3,82.7
		C135.2,376.8,122.3,372.1,110.5,367.1z M183.9,562c-18.6-10.6-26.6-51.2-20.3-103.3c1.5-12.8,4-26.3,7-40.1
		c26.7,6.5,55.9,11.6,86.6,14.9c18.4,25.2,37.5,48.2,56.7,68.2c-44.5,41.3-86.2,64-114.6,64C193.1,565.6,188,564.4,183.9,562z
		 M507.4,458.1c6.4,52.1-1.5,92.6-19.9,103.4c-4.1,2.5-9.4,3.5-15.7,3.5c-28.2,0-70.1-22.5-114.6-63.6
		c19.1-20.1,38.2-42.8,56.3-68.1c30.8-3.3,60-8.3,86.8-15C503.5,432.2,505.9,445.4,507.4,458.1z M560,367.1
		c-11.7,5-24.6,9.5-37.8,13.8c-7.8-26.7-18-54.6-30.7-83.1c12.6-28.4,22.6-56.1,30.3-82.7c13.5,4.2,26.3,8.9,38.3,13.9
		c48.3,20.6,79.5,47.6,79.5,69C639.5,319.5,608.3,346.6,560,367.1z"/>
	<path class="st0" d="M198.6,0.5L198.6,0.5L198.6,0.5z"/>
	<circle class="st0" cx="335.2" cy="298.1" r="62.3"/>
	<path class="st0" d="M471,0.1L471,0.1L471,0.1z"/>
</g>
</svg>
