<svg id="Layer_1" data-name="Layer 1" xmlns="http://www.w3.org/2000/svg" viewBox="0 0 128 128"><defs><style>.cls-1{fill:#cd6799;}</style></defs><title>sass</title><path class="cls-1" d="M110.22,71.19a26.45,26.45,0,0,0-11.6,2.68c-1.19-2.36-2.38-4.46-2.59-6a16,16,0,0,1-.24-5.05,46,46,0,0,1,1.52-5.45c0-.24-.28-1.33-2.85-1.36s-4.79.49-5,1.17A28.11,28.11,0,0,0,88.33,61c-.44,2.34-5.14,10.69-7.83,15.06a16.2,16.2,0,0,1-1.77-4.4,16,16,0,0,1-.24-5.05A43.68,43.68,0,0,1,80,61.16c0-.24-.28-1.34-2.85-1.36s-4.79.49-5,1.17-.54,2.27-1.08,3.81-6.78,15.48-8.41,19.08c-.84,1.84-1.57,3.32-2.08,4.32h0a1.94,1.94,0,0,1-.1.19c-.44.87-.7,1.33-.7,1.33v0c-.35.63-.72,1.21-.91,1.21s-.4-1.68.05-4C59.81,82.13,62,74.6,62,74.34s.42-1.45-1.45-2.13a2.33,2.33,0,0,0-2.64.45c-.17,0-.28.4-.28.4s2-8.47-3.88-8.47c-3.7,0-8.79,4-11.32,7.69L33.84,77c-1.38.78-2.81,1.55-4.14,2.27-.1-.09-.19-.21-.28-.3C22.26,71.3,9,65.9,9.59,55.64,9.8,51.9,11.09,42.08,35,30.15c19.68-9.7,35.35-7,38.06-1,3.88,8.51-8.4,24.32-28.74,26.61-7.76.86-11.83-2.13-12.85-3.25s-1.24-1.24-1.64-1c-.66.35-.24,1.41,0,2,.61,1.59,3.11,4.4,7.34,5.78C40.92,60.45,50,61.13,61,56.88c12.32-4.77,22-18,19.12-29.13-2.83-11.27-21.53-15-39.23-8.7C30.4,22.79,19,28.68,10.78,36.35,1,45.47-.51,53.39.12,56.71c2.27,11.79,18.52,19.46,25,25.14l-.89.49C21,84,8.61,90.43,5.52,97.28,2,105,6.08,110.6,8.77,111.35c8.35,2.32,16.93-1.84,21.54-8.72s4-15.8,1.91-19.89a.31.31,0,0,0-.09-.14l2.55-1.5c1.66-1,3.29-1.89,4.7-2.64A30.58,30.58,0,0,0,37.72,87c-.35,4.39,1.45,10.1,3.81,12.34a4.22,4.22,0,0,0,3.08,1c2.76,0,4-2.29,5.38-5,1.69-3.32,3.2-7.17,3.2-7.17S51.3,98.56,56.44,98.56c1.88,0,3.77-2.43,4.61-3.67v0a2.38,2.38,0,0,0,.14-.24c.19-.3.3-.49.3-.49v0c.75-1.3,2.44-4.27,4.94-9.21,3.22-6.36,6.33-14.31,6.33-14.31A40.11,40.11,0,0,0,74,75.79a47.44,47.44,0,0,0,2.67,6c-.75,1-1.22,1.63-1.22,1.63l0,0c-.61.79-1.27,1.66-2,2.5-2.55,3-5.59,6.52-6,7.53A2.05,2.05,0,0,0,68,96.23a5.13,5.13,0,0,0,3.13.51,13.94,13.94,0,0,0,4.7-1.08,15.84,15.84,0,0,0,4-2.12,9.06,9.06,0,0,0,3.88-8,16.14,16.14,0,0,0-1.47-5.63L83,79a106.65,106.65,0,0,0,7-12.11A40.25,40.25,0,0,0,91.26,72a33.84,33.84,0,0,0,2.26,5.15A22.24,22.24,0,0,0,86.7,86c-1.47,4.26-.33,6.17,1.85,6.62a6.55,6.55,0,0,0,3.41-.7,15.6,15.6,0,0,0,4.32-2.22c2.51-1.85,4.91-4.42,4.77-7.91A15,15,0,0,0,100,77.08a24.42,24.42,0,0,1,12.41-1.43C123.52,77,125.72,83.9,125.3,86.83a7.39,7.39,0,0,1-3.53,5c-.77.49-1,.65-1,1s.47.49,1.12.39A8.69,8.69,0,0,0,128,85.49C128.34,78.62,121.79,71.12,110.22,71.19ZM24.37,100.13c-3.7,4-8.84,5.54-11.06,4.26-2.39-1.38-1.45-7.32,3.09-11.58a58.57,58.57,0,0,1,8.67-6.47L27.36,85a1.84,1.84,0,0,1,.26-.14h0l.56-.35A16,16,0,0,1,24.37,100.13ZM51.25,81.85C50,85,47.28,93,45.64,92.56c-1.4-.38-2.26-6.46-.28-12.47a28.86,28.86,0,0,1,4.37-8c2-2.24,4.24-3,4.77-2.08C55.18,71.19,52.05,79.88,51.25,81.85ZM73.44,92.46c-.54.28-1,.47-1.28.33s.23-.47.23-.47,2.78-3,3.88-4.35c.63-.79,1.38-1.73,2.18-2.78v.3C78.45,89.07,75,91.48,73.44,92.46Zm17.12-3.9c-.4-.28-.33-1.22,1-4.14a15.66,15.66,0,0,1,3.81-4.91,6.55,6.55,0,0,1,.38,2.15C95.72,86.17,92.5,87.86,90.56,88.56Z"/></svg>